<svg class="img-fluid" id="outputsvg" xmlns="http://www.w3.org/2000/svg" style="transform: matrix(0.856831, 0, 0, 0.856831, 0, 0); transform-origin: 50% 50%; cursor: move; max-height: none; transition: transform 200ms ease-in-out 0s;" width="504" height="504" viewBox="0 0 5040 5040">
<g id="l1heXqnvljgESJyRAIsi5jO" fill="rgb(79,199,120)" style="transform: none;">
<g style="transform: none;">
<path id="pJiZNIwJj" d="M220 5009 c-73 -40 -152 -119 -189 -190 l-31 -57 0 -2241 0 -2242 26 -51 c36 -71 123 -159 193 -197 l59 -31 2242 0 2242 0 59 31 c70 38 157 126 193 197 l26 51 0 2242 0 2241 -31 59 c-38 70 -126 157 -197 193 l-51 26 -2243 0 -2243 0 -55 -31z m1620 -1494 l205 -36 553 -552 c303 -303 552 -556 552 -561 0 -13 -462 -476 -475 -476 -5 0 -258 249 -562 553 l-552 552 -25 145 c-14 80 -32 183 -41 230 -20 114 -19 139 8 168 27 30 41 29 337 -23z m1593 -1434 c65 -66 119 -130 123 -145 18 -75 -9 -119 -181 -291 -168 -168 -208 -188 -293 -148 -45 21 -242 210 -242 232 0 18 448 471 466 471 6 0 63 -53 127 -119z"></path><path id="pdbLptU3D" d="M1643 3392 c-43 -45 -63 -75 -63 -92 0 -42 42 -284 52 -297 6 -8 41 -11 106 -10 l97 2 3 103 3 102 99 0 100 0 0 104 c0 91 -2 105 -17 110 -43 13 -250 46 -282 45 -31 -1 -45 -11 -98 -67z"></path><path id="phhBVLARk" d="M1932 2908 c-7 -7 -12 -39 -12 -73 l0 -60 338 -338 337 -337 61 0 c33 0 65 5 72 12 7 7 12 39 12 72 l0 61 -338 337 -338 338 -60 0 c-33 0 -65 -5 -72 -12z"></path></g></g><g id="l6MHithwwaZm70dgaOlfatH" fill="rgb(255,255,255)" style="transform: none;"><g style="transform: none;"><path id="pUntqL8wp" d="M1479 3573 c-39 -33 -43 -65 -20 -194 11 -63 32 -181 46 -264 l26 -150 554 -555 c529 -529 556 -554 590 -554 35 0 51 15 276 240 202 203 239 245 239 270 0 25 -77 106 -557 586 l-556 557 -86 15 c-203 36 -438 73 -460 73 -14 -1 -37 -12 -52 -24z m382 -163 c163 -29 149 -19 149 -106 l0 -74 -100 0 -99 0 -3 -102 -3 -101 -69 0 c-50 0 -72 4 -78 14 -7 14 -49 251 -45 256 25 29 124 131 128 132 3 1 57 -8 120 -19z m511 -858 c296 -295 338 -341 338 -368 0 -38 -16 -54 -54 -54 -27 0 -73 42 -368 337 -297 296 -338 342 -338 368 0 39 16 55 54 55 26 0 74 -44 368 -338z"></path><path id="pGk0rE6ed" d="M3285 2239 c-30 -17 -464 -450 -480 -479 -11 -21 -11 -31 0 -55 17 -40 200 -216 250 -240 61 -29 145 -24 198 12 46 31 245 227 293 288 57 72 66 160 23 230 -21 35 -242 255 -255 255 -5 0 -18 -6 -29 -11z"></path></g></g><g id="l13ynNfWTKULIixiQRgeBci" fill="rgba(0,0,0,0)" style="transform: none;"><g style="transform: none;"><path id="pZ3sD2ozA" d="M1 4838 l1 -203 17 55 c27 84 58 138 114 198 61 63 117 99 207 129 l65 22 -202 0 -203 1 1 -202z"></path><path id="pN8Cxv1U6" d="M4700 5017 c90 -30 146 -66 207 -129 56 -60 87 -114 114 -198 l17 -55 1 203 1 202 -202 -1 -203 0 65 -22z"></path><path id="pt4lRWXQB" d="M1 203 l-1 -203 203 1 202 1 -55 17 c-84 27 -138 58 -198 114 -63 61 -99 117 -129 207 l-22 65 0 -202z"></path><path id="prEN0fNga" d="M5021 354 c-18 -72 -58 -142 -114 -202 -61 -63 -117 -99 -207 -129 l-65 -22 203 0 202 -1 0 200 c0 110 -2 200 -4 200 -2 0 -9 -21 -15 -46z"></path></g></g></svg>